<svg xmlns="http://www.w3.org/2000/svg" id="Layer_1" data-name="Layer 1" viewBox="0 0 506.74 506.74">
  <defs>
    <clipPath id="clip-path" transform="translate(-2.63 -2.8)">
      <path d="M2.78 2.96h506.43v506.43H2.78z" class="cls-1"/>
    </clipPath>
    <clipPath id="clip-path-2" transform="translate(-2.63 -2.8)">
      <path d="M18.23 18.41h475.53v475.53H18.23z" class="cls-1"/>
    </clipPath>
    <style>
      .cls-1{fill:none}.cls-6{isolation:isolate}.cls-7{fill:#1a1818}
    </style>
  </defs>
  <path d="M.15.15h506.43v506.43H.15z" class="cls-1"/>
  <g id="Group_6" data-name="Group 6">
    <g id="Group_5" clip-path="url(#clip-path)" data-name="Group 5">
      <g id="Group_4" data-name="Group 4">
        <path id="Path_1" fill="#fff" d="M256.15 3C116.31 2.87 2.87 116.17 2.78 256S116 509.31 255.85 509.39s253.28-113.21 253.37-253.06S396 3 256.15 3M256 321a64.86 64.86 0 1164.91-64.82A64.86 64.86 0 01256 321" data-name="Path 1" transform="translate(-2.63 -2.8)"/>
        <g id="Group_3" data-name="Group 3" opacity=".1">
          <g id="Group_2" clip-path="url(#clip-path-2)" data-name="Group 2">
            <g id="Group_1" data-name="Group 1">
              <g id="Y" class="cls-6">
                <g class="cls-6">
                  <path d="M220.27 482.59l-.36 2.23 2 3.9a.45.45 0 01.07.28.21.21 0 01-.13.16.39.39 0 01-.27 0l-1.35-.22a.59.59 0 01-.47-.35l-.51-1.08c-.11-.23-.23-.48-.35-.75 0 0-.09-.18-.22-.45h-.11c-.25.25-.48.49-.71.7l-.31.31-.84.81a.75.75 0 01-.25.15.59.59 0 01-.3 0l-1.18-.19a.53.53 0 01-.25-.11.24.24 0 01-.06-.2.51.51 0 01.14-.24l3.19-3.04.36-2.23a.38.38 0 01.49-.35l1.12.18a.38.38 0 01.3.49z" class="cls-7" transform="translate(-2.63 -2.8)"/>
                </g>
              </g>
              <g id="E" class="cls-6">
                <g class="cls-6">
                  <path d="M208.67 481.4l-1.17 5.21a.34.34 0 01-.45.3l-4.52-1a.34.34 0 01-.29-.46l.15-.67a.34.34 0 01.46-.29l3.15.71.2-.9-2.7-.6a.34.34 0 01-.28-.46l.14-.62a.33.33 0 01.45-.29l2.7.61.19-.87-3.15-.71a.33.33 0 01-.29-.45l.15-.67a.34.34 0 01.46-.3l4.52 1a.34.34 0 01.28.46z" class="cls-7" transform="translate(-2.63 -2.8)"/>
                </g>
              </g>
              <g id="R" class="cls-6">
                <g class="cls-6">
                  <path d="M195.85 477.41l-1.63 5.64a.37.37 0 01-.52.3l-3.64-1.05a2.49 2.49 0 01-1.08-.6 2.12 2.12 0 01-.6-1 2 2 0 010-1.17 2.15 2.15 0 01.75-1.12 2.26 2.26 0 011.31-.44l-.89-2.28a.54.54 0 010-.3.24.24 0 01.13-.15.43.43 0 01.25 0l1.24.35a.69.69 0 01.27.14.72.72 0 01.16.24l.87 2.42 1 .28.53-1.82a.37.37 0 01.53-.29l1.07.31a.37.37 0 01.25.54zm-5.23 2.21a.69.69 0 00-.35.43.74.74 0 000 .57.7.7 0 00.47.35l1.88.54.41-1.41-1.82-.52a.8.8 0 00-.59.04z" class="cls-7" transform="translate(-2.63 -2.8)"/>
                </g>
              </g>
              <g id="R-2" class="cls-6">
                <g class="cls-6">
                  <path d="M182.59 473.38l-2 5.53a.37.37 0 01-.54.26l-3.57-1.27a2.61 2.61 0 01-1-.66 2.09 2.09 0 01-.45-2.19 2.07 2.07 0 01.82-1.08 2.2 2.2 0 011.33-.35l-.75-2.34a.42.42 0 010-.29.2.2 0 01.14-.14.43.43 0 01.25 0l1.21.43a.76.76 0 01.26.16.55.55 0 01.14.25l.73 2.46 1 .35.63-1.79a.38.38 0 01.55-.26l1.06.37a.39.39 0 01.19.56zm-5.35 1.88a.7.7 0 00-.38.41.8.8 0 000 .57.72.72 0 00.45.38l1.85.66.49-1.39-1.79-.63a.83.83 0 00-.62 0z" class="cls-7" transform="translate(-2.63 -2.8)"/>
                </g>
              </g>
              <g id="Y-2" class="cls-6">
                <g class="cls-6">
                  <path d="M160.58 464.62l-1 2 .87 4.3a.46.46 0 010 .29.2.2 0 01-.17.12.4.4 0 01-.27-.05l-1.24-.57a.62.62 0 01-.36-.46l-.19-1.18c0-.26-.09-.53-.14-.82 0 0 0-.2-.08-.49l-.11-.05-.87.48-.38.21-1 .55a.67.67 0 01-.29.08.51.51 0 01-.28-.06l-1.07-.47a.46.46 0 01-.21-.17.2.2 0 010-.21.52.52 0 01.2-.19l3.85-2.11.95-2a.38.38 0 01.57-.21l1 .48a.37.37 0 01.22.53z" class="cls-7" transform="translate(-2.63 -2.8)"/>
                </g>
              </g>
              <g id="E-2" class="cls-6">
                <g class="cls-6">
                  <path d="M149.75 460.32l-2.54 4.7a.34.34 0 01-.52.16l-4.07-2.2a.35.35 0 01-.16-.53l.33-.6a.34.34 0 01.52-.15l2.84 1.54.43-.81-2.43-1.31a.34.34 0 01-.15-.52l.31-.56a.33.33 0 01.51-.16l2.43 1.32.42-.79-2.83-1.53a.34.34 0 01-.17-.52l.33-.6a.35.35 0 01.53-.16l4.07 2.2a.34.34 0 01.15.52z" class="cls-7" transform="translate(-2.63 -2.8)"/>
                </g>
              </g>
              <g id="R-3" class="cls-6">
                <g class="cls-6">
                  <path d="M138.49 453l-3.1 5a.38.38 0 01-.58.15l-3.22-2a2.5 2.5 0 01-.87-.87 2.13 2.13 0 01-.32-1.11 2 2 0 01.34-1.13 2 2 0 011-.87 2.23 2.23 0 011.38-.07l-.24-2.44a.51.51 0 010-.29.22.22 0 01.17-.11.41.41 0 01.24.07l1.09.68a.72.72 0 01.22.2.62.62 0 01.09.28l.19 2.56.87.54 1-1.61a.38.38 0 01.59-.14l1 .59a.37.37 0 01.15.57zm-5.63.71a.67.67 0 00-.45.32.74.74 0 00-.12.56.65.65 0 00.36.46l1.66 1 .77-1.24-1.61-1a.82.82 0 00-.61-.09z" class="cls-7" transform="translate(-2.63 -2.8)"/>
                </g>
              </g>
              <g id="R-4" class="cls-6">
                <g class="cls-6">
                  <path d="M126.81 445.54l-3.39 4.79a.37.37 0 01-.59.11l-3.1-2.19a2.57 2.57 0 01-.82-.92 2.14 2.14 0 01-.24-1.13 2 2 0 01.4-1.1 2.07 2.07 0 011.07-.81 2.28 2.28 0 011.39 0l-.1-2.45a.52.52 0 01.07-.29.2.2 0 01.17-.09.38.38 0 01.24.08l1 .74a.86.86 0 01.21.22.61.61 0 01.07.28v2.57l.84.59 1.09-1.55a.39.39 0 01.6-.1l.91.65a.37.37 0 01.18.6zm-5.66.36a.69.69 0 00-.48.3.68.68 0 00.18 1l1.6 1.13.85-1.19-1.55-1.1a.87.87 0 00-.6-.14z" class="cls-7" transform="translate(-2.63 -2.8)"/>
                </g>
              </g>
              <g id="Y-3" class="cls-6">
                <g class="cls-6">
                  <path d="M108 431.16l-1.47 1.71-.32 4.37a.55.55 0 01-.09.28.22.22 0 01-.19.07.41.41 0 01-.26-.12l-1-.89a.62.62 0 01-.23-.54l.14-1.19c0-.26 0-.53.09-.82v-.5l-.09-.07-1 .22-.42.1-1.16.22a.7.7 0 01-.29 0 .67.67 0 01-.26-.14l-.91-.78a.49.49 0 01-.16-.22.24.24 0 01.06-.21.44.44 0 01.24-.12l4.28-1 1.47-1.71a.37.37 0 01.6 0l.86.73a.39.39 0 01.11.61z" class="cls-7" transform="translate(-2.63 -2.8)"/>
                </g>
              </g>
              <g id="E-3" class="cls-6">
                <g class="cls-6">
                  <path d="M98.7 424.11L95 428a.34.34 0 01-.54 0l-3.33-3.22a.33.33 0 010-.54l.48-.5a.34.34 0 01.54 0l2.3 2.26.64-.66-2-1.92a.34.34 0 010-.54l.44-.46a.34.34 0 01.54 0l2 1.92.62-.64-2.32-2.24a.33.33 0 010-.54l.48-.5a.35.35 0 01.55 0l3.32 3.21a.34.34 0 01-.02.48z" class="cls-7" transform="translate(-2.63 -2.8)"/>
                </g>
              </g>
              <g id="R-5" class="cls-6">
                <g class="cls-6">
                  <path d="M89.82 414l-4.32 4a.37.37 0 01-.6 0l-2.57-2.8a2.57 2.57 0 01-.61-1.07 2.24 2.24 0 010-1.15 2.08 2.08 0 01.62-1 2.12 2.12 0 011.23-.57 2.27 2.27 0 011.34.31l.43-2.42a.49.49 0 01.12-.26.23.23 0 01.19-.06.34.34 0 01.22.13l.87.94a.7.7 0 01.15.26.56.56 0 010 .29l-.51 2.52.69.75 1.4-1.28a.37.37 0 01.6 0l.76.83a.37.37 0 01-.01.58zm-5.61-.83a.7.7 0 00-.53.19.7.7 0 000 1.06l1.32 1.47 1.08-1-1.29-1.4a.83.83 0 00-.58-.28z" class="cls-7" transform="translate(-2.63 -2.8)"/>
                </g>
              </g>
              <g id="R-6" class="cls-6">
                <g class="cls-6">
                  <path d="M80.56 403.7L76 407.41a.38.38 0 01-.6-.06l-2.4-2.94a2.5 2.5 0 01-.54-1.11 2.13 2.13 0 01.06-1.15 2.21 2.21 0 01.68-1 2.09 2.09 0 011.26-.49 2.21 2.21 0 011.33.39l.57-2.38a.44.44 0 01.14-.27.22.22 0 01.19 0 .43.43 0 01.21.14l.81 1a.74.74 0 01.14.26.76.76 0 010 .3l-.66 2.48.64.79 1.47-1.2a.38.38 0 01.6.06l.71.87a.38.38 0 01-.05.6zM75 402.53a.69.69 0 00-.54.15.79.79 0 00-.3.5.73.73 0 00.19.55l1.24 1.52 1.14-.93-1.2-1.47a.8.8 0 00-.53-.32z" class="cls-7" transform="translate(-2.63 -2.8)"/>
                </g>
              </g>
              <g id="Y-4" class="cls-6">
                <g class="cls-6">
                  <path d="M66.29 384.81l-1.88 1.25-1.48 4.12a.41.41 0 01-.16.24.21.21 0 01-.2 0 .42.42 0 01-.21-.19l-.76-1.13a.58.58 0 01-.07-.58l.44-1.11.31-.77.18-.47-.06-.09h-1.43L59.8 386a.58.58 0 01-.28-.08.68.68 0 01-.22-.2l-.66-1a.35.35 0 01-.09-.25.19.19 0 01.1-.18.49.49 0 01.27-.06l4.39.19 1.87-1.26a.38.38 0 01.59.12l.63.94a.39.39 0 01-.11.59z" class="cls-7" transform="translate(-2.63 -2.8)"/>
                </g>
              </g>
              <g id="E-4" class="cls-6">
                <g class="cls-6">
                  <path d="M59.24 375.52l-4.6 2.71a.34.34 0 01-.53-.13l-2.35-4a.34.34 0 01.14-.53l.59-.35a.34.34 0 01.53.15l1.63 2.78.79-.47-1.44-2.37a.34.34 0 01.14-.52l.55-.33a.34.34 0 01.52.14l1.4 2.38.77-.45-1.64-2.78a.34.34 0 01.13-.53l.59-.35a.35.35 0 01.54.13l2.34 4a.34.34 0 01-.1.52z" class="cls-7" transform="translate(-2.63 -2.8)"/>
                </g>
              </g>
              <g id="R-7" class="cls-6">
                <g class="cls-6">
                  <path d="M53.39 363.45l-5.23 2.67a.38.38 0 01-.57-.18l-1.73-3.38a2.47 2.47 0 01-.29-1.2 2.17 2.17 0 012.5-2.12 2.27 2.27 0 011.22.66l1.05-2.21a.51.51 0 01.2-.23.23.23 0 01.2 0 .36.36 0 01.16.18l.59 1.15a.67.67 0 01.08.29.62.62 0 01-.06.28l-1.17 2.29.46.91 1.69-.87a.38.38 0 01.58.19l.51 1a.38.38 0 01-.19.57zm-5.18-2.31a.69.69 0 00-.56 0 .69.69 0 00-.32 1l.89 1.74 1.3-.66-.86-1.69a.82.82 0 00-.45-.39z" class="cls-7" transform="translate(-2.63 -2.8)"/>
                </g>
              </g>
              <g id="R-8" class="cls-6">
                <g class="cls-6">
                  <path d="M47.25 351l-5.38 2.34a.37.37 0 01-.56-.21l-1.51-3.47a2.55 2.55 0 01-.23-1.22 2.07 2.07 0 01.38-1.09 2.18 2.18 0 012.25-.87 2.2 2.2 0 011.18.72l1.19-2.14a.41.41 0 01.2-.21.2.2 0 01.2 0 .39.39 0 01.16.19l.51 1.18a.65.65 0 01.07.29.54.54 0 01-.09.28l-1.3 2.21.41.93 1.74-.76a.38.38 0 01.56.22l.45 1a.38.38 0 01-.23.61zm-5-2.62a.66.66 0 00-.55 0 .72.72 0 00-.42.4.7.7 0 000 .58l.78 1.8 1.35-.59-.76-1.74a.83.83 0 00-.43-.46z" class="cls-7" transform="translate(-2.63 -2.8)"/>
                </g>
              </g>
              <g id="Y-5" class="cls-6">
                <g class="cls-6">
                  <path d="M38.61 329l-2.14.7-2.54 3.57a.48.48 0 01-.22.19.23.23 0 01-.21 0 .46.46 0 01-.15-.23l-.42-1.3a.6.6 0 01.09-.58l.73-.94c.15-.21.32-.43.5-.66l.3-.4v-.11l-.95-.31-.4-.13-1.11-.38a.81.81 0 01-.26-.15.55.55 0 01-.14-.25l-.38-1.14a.52.52 0 010-.27.28.28 0 01.15-.15.56.56 0 01.28 0l4.17 1.37 2.14-.7a.38.38 0 01.54.27l.35 1.08a.38.38 0 01-.33.52z" class="cls-7" transform="translate(-2.63 -2.8)"/>
                </g>
              </g>
              <g id="E-5" class="cls-6">
                <g class="cls-6">
                  <path d="M34.33 318.11l-5.16 1.35a.33.33 0 01-.47-.26l-1.18-4.48a.34.34 0 01.28-.47l.66-.18a.35.35 0 01.47.28l.82 3.12.88-.23-.7-2.67a.35.35 0 01.27-.47l.62-.16a.35.35 0 01.47.27l.7 2.67.86-.22-.85-3.12a.34.34 0 01.27-.48l.66-.17a.35.35 0 01.48.28l1.17 4.47a.34.34 0 01-.25.47z" class="cls-7" transform="translate(-2.63 -2.8)"/>
                </g>
              </g>
              <g id="R-9" class="cls-6">
                <g class="cls-6">
                  <path d="M32 304.89L26.22 306a.38.38 0 01-.51-.33L25 302a2.58 2.58 0 010-1.24 2.11 2.11 0 01.6-1 2 2 0 011.05-.52 2 2 0 011.34.15 2.29 2.29 0 011 1l1.62-1.84a.45.45 0 01.24-.17.28.28 0 01.2 0 .45.45 0 01.11.23l.25 1.25a.8.8 0 010 .31.53.53 0 01-.14.25l-1.74 1.89.2 1 1.86-.37a.37.37 0 01.5.33l.22 1.1a.38.38 0 01-.31.52zm-4.35-3.63a.71.71 0 00-.55-.11.7.7 0 00-.49.3.73.73 0 00-.1.58l.39 1.92 1.44-.29-.37-1.86a.87.87 0 00-.35-.54z" class="cls-7" transform="translate(-2.63 -2.8)"/>
                </g>
              </g>
              <g id="R-10" class="cls-6">
                <g class="cls-6">
                  <path d="M29.45 291.24l-5.82.8a.37.37 0 01-.48-.36l-.51-3.76a2.49 2.49 0 01.11-1.22 2.07 2.07 0 01.66-.95 2.13 2.13 0 011.07-.47 2.08 2.08 0 011.33.24 2.23 2.23 0 01.94 1l1.72-1.74a.44.44 0 01.26-.15.22.22 0 01.19.06.45.45 0 01.1.23l.17 1.27a.73.73 0 010 .3.63.63 0 01-.16.25l-1.85 1.78.13 1 1.88-.26a.38.38 0 01.49.36l.15 1.12a.38.38 0 01-.38.5zm-4.13-3.88a.67.67 0 00-.54-.15.79.79 0 00-.51.26.74.74 0 00-.13.58l.27 1.94 1.46-.2-.26-1.88a.82.82 0 00-.29-.55z" class="cls-7" transform="translate(-2.63 -2.8)"/>
                </g>
              </g>
              <g id="Y-6" class="cls-6">
                <g class="cls-6">
                  <path d="M27.09 267.69l-2.25.09-3.41 2.75a.49.49 0 01-.26.13.25.25 0 01-.19-.09.48.48 0 01-.08-.27l-.06-1.36a.59.59 0 01.24-.53l1-.72.66-.5.4-.3v-.11l-.84-.56-.35-.24-1-.66a.66.66 0 01-.2-.21.62.62 0 01-.08-.29l-.05-1.19a.49.49 0 01.06-.27.24.24 0 01.18-.1.54.54 0 01.26.09l3.65 2.45 2.25-.1a.37.37 0 01.44.41l.05 1.13c.01.29-.13.43-.42.45z" class="cls-7" transform="translate(-2.63 -2.8)"/>
                </g>
              </g>
              <g id="E-6" class="cls-6">
                <g class="cls-6">
                  <path d="M25.9 256.1l-5.34-.1a.34.34 0 01-.39-.39l.08-4.62a.34.34 0 01.4-.38h.68c.26 0 .38.14.38.4l-.06 3.22h.92l.05-2.76a.33.33 0 01.38-.37h.64c.26 0 .38.13.38.39l-.02 2.8h.89l.05-3.22c0-.26.14-.39.39-.38H26c.26 0 .38.13.38.39l-.08 4.63a.33.33 0 01-.4.39z" class="cls-7" transform="translate(-2.63 -2.8)"/>
                </g>
              </g>
              <g id="R-11" class="cls-6">
                <g class="cls-6">
                  <path d="M27.17 242.73l-5.85-.43a.37.37 0 01-.4-.45l.28-3.78a2.45 2.45 0 01.37-1.18 2.06 2.06 0 01.84-.79 2.19 2.19 0 012.4.28 2.17 2.17 0 01.7 1.19l2-1.35a.46.46 0 01.28-.09.2.2 0 01.17.1.36.36 0 010 .24l.04 1.29a.66.66 0 01-.08.29.57.57 0 01-.2.21l-2.19 1.35-.07 1 1.89.13a.38.38 0 01.39.46l-.08 1.12a.38.38 0 01-.49.41zm-3.23-4.66a.67.67 0 00-.49-.26.79.79 0 00-.56.16.74.74 0 00-.24.53l-.14 1.95 1.46.11.14-1.89a.8.8 0 00-.17-.6z" class="cls-7" transform="translate(-2.63 -2.8)"/>
                </g>
              </g>
              <g id="R-12" class="cls-6">
                <g class="cls-6">
                  <path d="M28.39 228.9l-5.82-.78a.37.37 0 01-.36-.47l.5-3.76a2.63 2.63 0 01.44-1.16A2.2 2.2 0 0124 222a2.23 2.23 0 012.38.43 2.2 2.2 0 01.62 1.23l2.13-1.22a.48.48 0 01.29-.07.25.25 0 01.17.11.46.46 0 010 .25l-.1 1.27a.71.71 0 01-.1.28.51.51 0 01-.21.2l-2.27 1.22-.13 1 1.88.25a.38.38 0 01.36.48l-.15 1.11a.37.37 0 01-.48.36zm-2.94-4.84a.68.68 0 00-.48-.29.75.75 0 00-.56.12.76.76 0 00-.28.52l-.26 1.94 1.46.19.25-1.88a.8.8 0 00-.13-.6z" class="cls-7" transform="translate(-2.63 -2.8)"/>
                </g>
              </g>
              <g id="Y-7" class="cls-6">
                <g class="cls-6">
                  <path d="M32.42 205.58l-2.2-.51-4 1.73a.46.46 0 01-.29 0 .2.2 0 01-.15-.13.38.38 0 010-.28l.31-1.33a.59.59 0 01.37-.45l1.12-.43.77-.31.46-.18v-.11c-.24-.26-.45-.52-.65-.76l-.28-.32-.76-.9a.67.67 0 01-.14-.26.62.62 0 010-.3l.27-1.16a.39.39 0 01.12-.24.23.23 0 01.21-.05.55.55 0 01.22.16l2.86 3.33 2.19.51a.39.39 0 01.33.51l-.26 1.11a.38.38 0 01-.5.37z" class="cls-7" transform="translate(-2.63 -2.8)"/>
                </g>
              </g>
              <g id="E-7" class="cls-6">
                <g class="cls-6">
                  <path d="M34.38 194.07l-5.12-1.51a.33.33 0 01-.26-.48l1.31-4.43a.33.33 0 01.48-.26l.66.19a.33.33 0 01.25.48l-.91 3.09.88.26.78-2.64a.33.33 0 01.47-.26l.62.18a.33.33 0 01.25.47l-.79 2.65.85.25.92-3.09a.33.33 0 01.47-.26l.66.19a.33.33 0 01.26.48l-1.31 4.44a.33.33 0 01-.47.25z" class="cls-7" transform="translate(-2.63 -2.8)"/>
                </g>
              </g>
              <g id="R-13" class="cls-6">
                <g class="cls-6">
                  <path d="M39.21 181.56l-5.53-2a.38.38 0 01-.26-.54l1.29-3.56a2.58 2.58 0 01.68-1 2.18 2.18 0 011-.53 2 2 0 011.17.09 2.11 2.11 0 011.07.82 2.25 2.25 0 01.35 1.34l2.34-.74a.42.42 0 01.29 0 .22.22 0 01.14.14.37.37 0 010 .25l-.43 1.17a.68.68 0 01-.16.26.61.61 0 01-.25.14l-2.47.72-.35.95 1.79.65a.38.38 0 01.25.55l-.38 1.05a.37.37 0 01-.54.24zm-1.85-5.36a.78.78 0 00-1-.38.7.7 0 00-.38.45l-.66 1.84 1.38.5.64-1.79a.79.79 0 00.02-.62z" class="cls-7" transform="translate(-2.63 -2.8)"/>
                </g>
              </g>
              <g id="R-14" class="cls-6">
                <g class="cls-6">
                  <path d="M44.12 168.59l-5.39-2.33a.38.38 0 01-.23-.56l1.5-3.48a2.56 2.56 0 01.74-1 2 2 0 011-.47 2 2 0 011.16.16 2.07 2.07 0 011 .89 2.2 2.2 0 01.27 1.35l2.38-.59a.41.41 0 01.29 0 .2.2 0 01.13.15.35.35 0 010 .24l-.51 1.18a.69.69 0 01-.17.25.64.64 0 01-.26.13l-2.51.56-.4.94 1.74.75a.38.38 0 01.22.56l-.45 1a.37.37 0 01-.51.27zm-1.52-5.47a.7.7 0 00-.39-.4.77.77 0 00-.57 0 .76.76 0 00-.41.43l-.78 1.79 1.35.59.75-1.74a.83.83 0 00.05-.67z" class="cls-7" transform="translate(-2.63 -2.8)"/>
                </g>
              </g>
              <g id="Y-8" class="cls-6">
                <g class="cls-6">
                  <path d="M54.32 147.21l-2-1.08-4.34.58a.45.45 0 01-.29 0 .23.23 0 01-.11-.17.42.42 0 01.07-.27l.66-1.2a.56.56 0 01.48-.33l1.21-.14.82-.09h.5v-.1c-.15-.31-.29-.62-.42-.9l-.18-.39-.43-1.12a.65.65 0 01-.07-.29.54.54 0 01.09-.28l.57-1.05a.46.46 0 01.19-.2.22.22 0 01.21 0 .51.51 0 01.17.22l1.85 4 2 1.08a.37.37 0 01.16.58l-.54 1a.37.37 0 01-.6.15z" class="cls-7" transform="translate(-2.63 -2.8)"/>
                </g>
              </g>
              <g id="E-8" class="cls-6">
                <g class="cls-6">
                  <path d="M59.33 136.67l-4.52-2.84a.34.34 0 01-.13-.53l2.46-3.92a.35.35 0 01.54-.12l.58.37a.34.34 0 01.12.53l-1.72 2.73.78.49 1.47-2.38a.34.34 0 01.52-.12l.54.34a.34.34 0 01.12.53l-1.47 2.33.75.48 1.72-2.73a.35.35 0 01.53-.13l.58.37a.33.33 0 01.12.53l-2.46 3.92a.34.34 0 01-.53.15z" class="cls-7" transform="translate(-2.63 -2.8)"/>
                </g>
              </g>
              <g id="R-15" class="cls-6">
                <g class="cls-6">
                  <path d="M67.37 125.92l-4.78-3.42a.38.38 0 01-.1-.59l2.2-3.08a2.68 2.68 0 01.93-.82 2.13 2.13 0 011.13-.23 2.21 2.21 0 011.91 1.48 2.25 2.25 0 010 1.38l2.45-.07a.38.38 0 01.29.07.23.23 0 01.1.17.4.4 0 01-.09.23l-.74 1a.86.86 0 01-.22.21.65.65 0 01-.29.07h-2.57l-.59.83 1.54 1.1a.37.37 0 01.1.6l-.65.91a.37.37 0 01-.62.16zm-.37-5.66a.69.69 0 00-.3-.48.77.77 0 00-.55-.16.73.73 0 00-.48.33l-1.14 1.6 1.19.85 1.1-1.54a.83.83 0 00.18-.6z" class="cls-7" transform="translate(-2.63 -2.8)"/>
                </g>
              </g>
              <g id="R-16" class="cls-6">
                <g class="cls-6">
                  <path d="M75.59 114.77l-4.59-3.7a.38.38 0 01-.07-.6l2.39-2.94a2.6 2.6 0 011-.76 2.19 2.19 0 011.15-.17 2.14 2.14 0 011.07.47 2.1 2.1 0 01.74 1.13 2.21 2.21 0 01-.11 1.38l2.45.07a.5.5 0 01.29.08.22.22 0 01.08.18.34.34 0 01-.1.23l-.81 1a.67.67 0 01-.23.19.61.61 0 01-.28.06l-2.57-.14-.64.79 1.47 1.2a.38.38 0 01.06.6l-.7.87a.38.38 0 01-.6.06zm0-5.67a.71.71 0 00-.26-.5.8.8 0 00-.54-.19.77.77 0 00-.51.3l-1.23 1.52 1.14.93 1.19-1.48a.76.76 0 00.22-.58z" class="cls-7" transform="translate(-2.63 -2.8)"/>
                </g>
              </g>
              <g id="Y-9" class="cls-6">
                <g class="cls-6">
                  <path d="M91.17 96.93l-1.61-1.58-4.34-.61a.39.39 0 01-.26-.11.19.19 0 01-.07-.19.49.49 0 01.14-.25l1-1a.6.6 0 01.55-.19l1.18.21.81.14.49.09.08-.09c-.06-.34-.11-.67-.16-1l-.11-.35-.18-1.16a.68.68 0 010-.29.61.61 0 01.16-.26l.83-.85a.45.45 0 01.23-.14.21.21 0 01.2.07.42.42 0 01.11.25l.78 4.31 1.61 1.57a.38.38 0 010 .61l-.79.81a.39.39 0 01-.65.01z" class="cls-7" transform="translate(-2.63 -2.8)"/>
                </g>
              </g>
              <g id="E-9" class="cls-6">
                <g class="cls-6">
                  <path d="M98.82 88.13l-3.59-3.95a.33.33 0 010-.54l3.42-3.11a.34.34 0 01.55 0l.46.51a.34.34 0 010 .54l-2.39 2.17.62.68 2-1.86a.34.34 0 01.54 0l.43.47a.34.34 0 010 .54l-2.05 1.86.6.65 2.4-2.09a.34.34 0 01.54 0l.46.51a.34.34 0 010 .55l-3.43 3.11a.34.34 0 01-.56-.04z" class="cls-7" transform="translate(-2.63 -2.8)"/>
                </g>
              </g>
              <g id="R-17" class="cls-6">
                <g class="cls-6">
                  <path d="M109.45 79.92l-3.69-4.57a.37.37 0 01.06-.59l3-2.38a2.55 2.55 0 011.11-.54 2.17 2.17 0 011.16.07 2.12 2.12 0 01.95.69 2.08 2.08 0 01.48 1.26 2.17 2.17 0 01-.39 1.32l2.38.58a.44.44 0 01.26.15.22.22 0 010 .19.39.39 0 01-.15.2l-1 .81a.74.74 0 01-.26.14.76.76 0 01-.3 0l-2.48-.68-.79.64 1.21 1.48a.38.38 0 01-.06.6L110 80a.37.37 0 01-.55-.08zm1.19-5.54a.67.67 0 00-.15-.54.73.73 0 00-.49-.29.7.7 0 00-.56.18L107.92 75l.92 1.14 1.48-1.19a.78.78 0 00.32-.57z" class="cls-7" transform="translate(-2.63 -2.8)"/>
                </g>
              </g>
              <g id="R-18" class="cls-6">
                <g class="cls-6">
                  <path d="M120.38 71.37L117 66.59a.39.39 0 01.1-.6l3.09-2.19a2.46 2.46 0 011.14-.47 2.1 2.1 0 012.06.88 2.12 2.12 0 01.4 1.29 2.18 2.18 0 01-.47 1.3l2.34.72a.42.42 0 01.25.16.21.21 0 010 .2.45.45 0 01-.16.19l-1.05.74a.67.67 0 01-.27.13.59.59 0 01-.29 0l-2.44-.82-.83.6 1.1 1.54a.38.38 0 01-.1.6l-.91.65a.38.38 0 01-.58-.14zm1.53-5.46a.73.73 0 00-.12-.54.71.71 0 00-.48-.33.68.68 0 00-.56.15l-1.6 1.14.85 1.19 1.55-1.1a.81.81 0 00.36-.51z" class="cls-7" transform="translate(-2.63 -2.8)"/>
                </g>
              </g>
              <g id="Y-10" class="cls-6">
                <g class="cls-6">
                  <path d="M140.16 58.38l-1.13-2-4-1.75a.42.42 0 01-.23-.17.26.26 0 010-.21.54.54 0 01.2-.2l1.19-.68a.6.6 0 01.58 0l1.08.52.74.35.46.21.09-.05c0-.35.07-.68.11-1l.05-.43.14-1.17a.54.54 0 01.09-.27.62.62 0 01.22-.2l1-.6a.42.42 0 01.27-.07.2.2 0 01.17.11.51.51 0 010 .27l-.48 4.37 1.13 2a.38.38 0 01-.16.58l-1 .57a.38.38 0 01-.52-.18z" class="cls-7" transform="translate(-2.63 -2.8)"/>
                </g>
              </g>
              <g id="E-10" class="cls-6">
                <g class="cls-6">
                  <path d="M149.89 52l-2.4-4.77a.35.35 0 01.17-.52l4.13-2.07a.34.34 0 01.52.17l.31.61a.34.34 0 01-.18.52l-2.88 1.45.41.82 2.47-1.24a.33.33 0 01.51.17l.29.57a.34.34 0 01-.17.51l-2.47 1.24.4.79 2.88-1.45a.34.34 0 01.52.17l.31.61a.34.34 0 01-.17.52l-4.14 2.08a.34.34 0 01-.51-.18z" class="cls-7" transform="translate(-2.63 -2.8)"/>
                </g>
              </g>
              <g id="R-19" class="cls-6">
                <g class="cls-6">
                  <path d="M162.34 46.91l-2.34-5.4a.37.37 0 01.21-.56l3.49-1.49a2.48 2.48 0 011.21-.22 2.16 2.16 0 011.09.38 2.05 2.05 0 01.74.92 2.08 2.08 0 01.12 1.34 2.16 2.16 0 01-.73 1.17l2.13 1.2a.5.5 0 01.22.21.23.23 0 010 .2.42.42 0 01-.2.16l-1.18.5a.65.65 0 01-.29.07.54.54 0 01-.28-.09l-2.19-1.3-.94.4.75 1.74a.39.39 0 01-.22.57l-1 .44a.38.38 0 01-.59-.24zm2.65-5a.68.68 0 000-.56.81.81 0 00-.39-.42.76.76 0 00-.59 0l-1.8.77.58 1.35 1.74-.74a.82.82 0 00.47-.42z" class="cls-7" transform="translate(-2.63 -2.8)"/>
                </g>
              </g>
              <g id="R-20" class="cls-6">
                <g class="cls-6">
                  <path d="M175.17 41.62l-2-5.53a.37.37 0 01.25-.54l3.58-1.28a2.58 2.58 0 011.22-.14 2.05 2.05 0 011.07.45 2 2 0 01.67 1 2.06 2.06 0 01.05 1.34 2.3 2.3 0 01-.81 1.13l2.06 1.33a.42.42 0 01.2.22.21.21 0 010 .19.38.38 0 01-.21.15l-1.2.43a.6.6 0 01-.58 0l-2.12-1.45-1 .34L177 41a.37.37 0 01-.26.54l-1 .38a.37.37 0 01-.57-.3zm3-4.84a.68.68 0 000-.56.77.77 0 00-.36-.44.71.71 0 00-.59 0l-1.84.66.49 1.38 1.79-.64a.8.8 0 00.46-.4z" class="cls-7" transform="translate(-2.63 -2.8)"/>
                </g>
              </g>
              <g id="Y-11" class="cls-6">
                <g class="cls-6">
                  <path d="M197.74 34.46l-.56-2.19-3.39-2.77a.49.49 0 01-.17-.23.21.21 0 010-.2.41.41 0 01.24-.14l1.32-.34a.61.61 0 01.57.13l.9.79c.2.17.41.35.62.55l.38.32h.11c.13-.33.25-.64.37-.93l.17-.4.44-1.08a.69.69 0 01.17-.25.68.68 0 01.27-.13l1.15-.29a.41.41 0 01.27 0 .23.23 0 01.14.16.48.48 0 010 .27l-1.64 4.07.56 2.18a.38.38 0 01-.31.52l-1.1.28a.38.38 0 01-.51-.32z" class="cls-7" transform="translate(-2.63 -2.8)"/>
                </g>
              </g>
              <g id="E-11" class="cls-6">
                <g class="cls-6">
                  <path d="M208.84 30.91l-1-5.24a.34.34 0 01.3-.45l4.54-.88a.34.34 0 01.45.31l.13.68a.33.33 0 01-.31.44l-3.17.61.18.9 2.71-.52a.34.34 0 01.45.3l.12.63a.33.33 0 01-.3.44l-2.72.53.17.87 3.17-.61a.33.33 0 01.45.3l.13.67a.34.34 0 01-.3.46l-4.55.88a.34.34 0 01-.45-.32z" class="cls-7" transform="translate(-2.63 -2.8)"/>
                </g>
              </g>
              <g id="R-21" class="cls-6">
                <g class="cls-6">
                  <path d="M222.19 29.44l-.77-5.82a.37.37 0 01.36-.48l3.76-.5a2.55 2.55 0 011.23.12 2.12 2.12 0 011.4 1.74 2.14 2.14 0 01-.24 1.33 2.28 2.28 0 01-1 .93l1.73 1.74a.42.42 0 01.15.25.21.21 0 01-.06.19.38.38 0 01-.23.1l-1.28.17a.74.74 0 01-.3 0 .67.67 0 01-.24-.16l-1.77-1.86-1 .13.25 1.88a.39.39 0 01-.37.48l-1.11.15a.37.37 0 01-.51-.39zm3.9-4.11a.67.67 0 00.15-.54.79.79 0 00-.26-.51.72.72 0 00-.57-.13l-1.94.26.19 1.45 1.88-.25a.8.8 0 00.55-.28z" class="cls-7" transform="translate(-2.63 -2.8)"/>
                </g>
              </g>
              <g id="R-22" class="cls-6">
                <g class="cls-6">
                  <path d="M236 27.83l-.44-5.83a.38.38 0 01.39-.46l3.78-.27a2.6 2.6 0 011.22.2 2.22 2.22 0 01.91.72 2.14 2.14 0 01.39 1.1 2.09 2.09 0 01-.33 1.31 2.17 2.17 0 01-1.07.87l1.62 1.83a.48.48 0 01.13.27.2.2 0 01-.07.18.43.43 0 01-.24.09l-1.29.06a.68.68 0 01-.3 0 .71.71 0 01-.24-.17l-1.65-2-1 .07.14 1.9a.37.37 0 01-.4.45l-1.12.08a.37.37 0 01-.43-.4zm4.12-3.83a.65.65 0 00.18-.53.7.7 0 00-.23-.52.68.68 0 00-.56-.17l-1.95.14.1 1.46 1.89-.13a.8.8 0 00.57-.25z" class="cls-7" transform="translate(-2.63 -2.8)"/>
                </g>
              </g>
              <g id="Y-12" class="cls-6">
                <g class="cls-6">
                  <path d="M259.62 27l.05-2.25-2.52-3.58a.5.5 0 01-.11-.27.24.24 0 01.1-.18.47.47 0 01.28-.07h1.36a.61.61 0 01.52.28l.65 1 .45.7.28.41h.11l.61-.79.26-.34.72-.92a.67.67 0 01.23-.19.62.62 0 01.29-.06h1.19a.41.41 0 01.27.07.22.22 0 01.08.19.45.45 0 01-.1.25l-2.68 3.48-.05 2.26c0 .28-.15.42-.44.42h-1.13c-.28.04-.42-.11-.42-.41z" class="cls-7" transform="translate(-2.63 -2.8)"/>
                </g>
              </g>
              <g id="E-12" class="cls-6">
                <g class="cls-6">
                  <path d="M271.28 26.58l.43-5.32a.34.34 0 01.41-.36l4.61.37a.34.34 0 01.35.42l-.05.68a.34.34 0 01-.42.35l-3.21-.26-.08.92 2.75.22a.33.33 0 01.35.41l-.05.63a.33.33 0 01-.37.36l-2.75-.22-.07.89 3.21.26c.26 0 .38.15.36.4v.69a.35.35 0 01-.42.36l-4.7-.38a.34.34 0 01-.35-.42z" class="cls-7" transform="translate(-2.63 -2.8)"/>
                </g>
              </g>
              <g id="R-23" class="cls-6">
                <g class="cls-6">
                  <path d="M284.53 28.72l.81-5.82a.37.37 0 01.47-.36l3.76.52a2.6 2.6 0 011.15.45 2.13 2.13 0 01.74.89 2.21 2.21 0 01-.44 2.38 2.26 2.26 0 01-1.23.62l1.2 2.13a.42.42 0 01.07.29.22.22 0 01-.06.18.44.44 0 01-.24 0l-1.28-.18a.77.77 0 01-.28-.1.62.62 0 01-.2-.22l-1.2-2.26-1-.15-.32 1.91a.39.39 0 01-.49.37l-1.11-.16a.37.37 0 01-.35-.49zm4.86-2.92a.72.72 0 00.29-.48.75.75 0 00-.12-.56.76.76 0 00-.52-.28l-1.94-.27-.2 1.46 1.88.26a.83.83 0 00.61-.13z" class="cls-7" transform="translate(-2.63 -2.8)"/>
                </g>
              </g>
              <g id="R-24" class="cls-6">
                <g class="cls-6">
                  <path d="M298.24 30.85l1.17-5.76a.37.37 0 01.49-.33l3.72.75a2.62 2.62 0 011.12.51 2.09 2.09 0 01.68.94 2 2 0 01.08 1.17 2 2 0 01-.66 1.17 2.2 2.2 0 01-1.27.55l1.08 2.2a.46.46 0 01.05.29.19.19 0 01-.12.16.41.41 0 01-.25 0l-1.26-.26a.78.78 0 01-.28-.11.62.62 0 01-.18-.23l-1.06-2.34-1-.2-.38 1.86a.37.37 0 01-.5.33l-1.1-.22a.38.38 0 01-.33-.48zm5-2.62a.69.69 0 00.32-.46.78.78 0 00-.08-.57.74.74 0 00-.5-.31l-1.92-.39-.29 1.44 1.86.38a.78.78 0 00.64-.09z" class="cls-7" transform="translate(-2.63 -2.8)"/>
                </g>
              </g>
              <g id="Y-13" class="cls-6">
                <g class="cls-6">
                  <path d="M321.26 36.41l.66-2.16-1.47-4.13a.47.47 0 010-.28.25.25 0 01.15-.15.54.54 0 01.28 0l1.31.4a.6.6 0 01.42.4l.35 1.14c.09.25.17.51.25.79 0 0 .07.19.16.48h.11l.8-.6.34-.26 1-.69a.55.55 0 01.26-.12.63.63 0 01.3 0l1.14.35a.4.4 0 01.23.14.22.22 0 010 .21.57.57 0 01-.17.21l-3.52 2.63-.69 2.23a.38.38 0 01-.54.28l-1.08-.28a.39.39 0 01-.29-.59z" class="cls-7" transform="translate(-2.63 -2.8)"/>
                </g>
              </g>
              <g id="E-13" class="cls-6">
                <g class="cls-6">
                  <path d="M332.6 39.13l1.85-5a.34.34 0 01.49-.24l4.33 1.61a.34.34 0 01.23.5l-.23.64a.34.34 0 01-.5.22l-3-1.12-.31.86 2.59 1a.34.34 0 01.22.49l-.22.6a.33.33 0 01-.49.22l-2.59-.95-.31.83 3 1.12a.34.34 0 01.23.49l-.24.64a.34.34 0 01-.5.23l-4.33-1.6a.34.34 0 01-.22-.54z" class="cls-7" transform="translate(-2.63 -2.8)"/>
                </g>
              </g>
              <g id="R-25" class="cls-6">
                <g class="cls-6">
                  <path d="M344.78 44.79l2.35-5.38a.37.37 0 01.56-.22l3.47 1.52a2.49 2.49 0 011 .74 2.13 2.13 0 01.47 1 2.2 2.2 0 01-1.07 2.18 2.27 2.27 0 01-1.35.26l.58 2.38a.43.43 0 010 .3.22.22 0 01-.15.13.48.48 0 01-.25 0l-1.17-.52a.59.59 0 01-.38-.43l-.55-2.51-.93-.41-.76 1.74a.39.39 0 01-.57.22l-1-.45a.37.37 0 01-.25-.55zm5.46-1.5a.64.64 0 00.41-.38.72.72 0 000-.57.71.71 0 00-.42-.41l-1.79-.78-.59 1.34 1.73.76a.8.8 0 00.66.04z" class="cls-7" transform="translate(-2.63 -2.8)"/>
                </g>
              </g>
              <g id="R-26" class="cls-6">
                <g class="cls-6">
                  <path d="M357.39 50.55l2.68-5.23a.38.38 0 01.57-.19l3.36 1.74a2.52 2.52 0 01.94.79 2.1 2.1 0 01.4 1.09 1.94 1.94 0 01-.24 1.14 2.06 2.06 0 01-.95 1 2.25 2.25 0 01-1.37.18l.44 2.41a.48.48 0 010 .3.25.25 0 01-.16.12.39.39 0 01-.24-.06l-1.15-.58a.63.63 0 01-.23-.19.56.56 0 01-.12-.27l-.39-2.54-.91-.46-.86 1.69a.38.38 0 01-.58.18l-1-.51a.38.38 0 01-.19-.61zm5.55-1.16a.73.73 0 00.43-.36.78.78 0 00.07-.57.7.7 0 00-.44-.46l-1.74-.89-.67 1.3 1.69.87a.81.81 0 00.66.11z" class="cls-7" transform="translate(-2.63 -2.8)"/>
                </g>
              </g>
              <g id="Y-14" class="cls-6">
                <g class="cls-6">
                  <path d="M378 62.14l1.22-1.9-.22-4.37a.44.44 0 010-.29.24.24 0 01.18-.1.51.51 0 01.27.09l1.15.73a.61.61 0 01.3.51v2.52l.09.06L382 59l.4-.16 1.1-.41a.58.58 0 01.28 0 .53.53 0 01.28.1l1 .64a.58.58 0 01.19.2.23.23 0 010 .21.5.5 0 01-.22.16l-4.1 1.58-1.21 1.9a.38.38 0 01-.59.13l-1-.61a.38.38 0 01-.13-.6z" class="cls-7" transform="translate(-2.63 -2.8)"/>
                </g>
              </g>
              <g id="E-14" class="cls-6">
                <g class="cls-6">
                  <path d="M388.22 67.84l3.14-4.32a.35.35 0 01.54-.1l3.74 2.72a.34.34 0 01.09.54l-.41.56a.34.34 0 01-.54.08l-2.61-1.9-.54.75 2.24 1.62a.34.34 0 01.09.53l-.38.52a.34.34 0 01-.53.08l-2.24-1.62-.52.72 2.61 1.89a.34.34 0 01.09.54l-.4.55a.34.34 0 01-.54.09l-3.75-2.71a.35.35 0 01-.08-.54z" class="cls-7" transform="translate(-2.63 -2.8)"/>
                </g>
              </g>
              <g id="R-27" class="cls-6">
                <g class="cls-6">
                  <path d="M398.42 76.57l3.72-4.57a.37.37 0 01.6-.07l2.93 2.4a2.6 2.6 0 01.75 1 2.18 2.18 0 01.17 1.15 2.22 2.22 0 01-1.61 1.8 2.27 2.27 0 01-1.38-.11l-.08 2.44a.55.55 0 01-.09.29.19.19 0 01-.18.08.36.36 0 01-.23-.1l-1-.81a.82.82 0 01-.2-.23.84.84 0 01-.05-.29l.15-2.57-.79-.64-1.2 1.46a.37.37 0 01-.6.06l-.87-.71a.37.37 0 01-.04-.58zm5.67 0a.74.74 0 00.5-.26.8.8 0 00.19-.54.73.73 0 00-.3-.51l-1.48-1.2-1 1.13 1.46 1.21a.88.88 0 00.63.21z" class="cls-7" transform="translate(-2.63 -2.8)"/>
                </g>
              </g>
              <g id="R-28" class="cls-6">
                <g class="cls-6">
                  <path d="M409 85.51l4-4.31a.38.38 0 01.6 0l2.78 2.58a2.44 2.44 0 01.69 1 2.15 2.15 0 01.1 1.15 2.22 2.22 0 01-.54 1 2.07 2.07 0 01-1.18.66 2.18 2.18 0 01-1.36-.19l-.23 2.44a.48.48 0 01-.11.28.24.24 0 01-.18.07.43.43 0 01-.23-.12l-.94-.87a.94.94 0 01-.18-.24.67.67 0 010-.29l.3-2.55-.75-.69-1.28 1.39a.39.39 0 01-.61 0l-.82-.76a.38.38 0 01-.06-.55zm5.66.38a.68.68 0 00.51-.23.72.72 0 00.22-.53.73.73 0 00-.26-.52l-1.44-1.33-1 1.08 1.4 1.29a.85.85 0 00.58.24z" class="cls-7" transform="translate(-2.63 -2.8)"/>
                </g>
              </g>
              <g id="Y-15" class="cls-6">
                <g class="cls-6">
                  <path d="M425.79 102.22l1.67-1.5.9-4.29a.42.42 0 01.12-.26.2.2 0 01.2 0 .38.38 0 01.23.15l.91 1a.58.58 0 01.15.56l-.28 1.12-.2.81s0 .19-.11.48l.07.08 1-.09h.43l1.16-.11a.66.66 0 01.29 0 .56.56 0 01.24.17l.8.89a.48.48 0 01.13.24.26.26 0 01-.08.2.6.6 0 01-.26.09l-4.37.43-1.68 1.5a.38.38 0 01-.6 0l-.76-.84a.38.38 0 01.04-.63z" class="cls-7" transform="translate(-2.63 -2.8)"/>
                </g>
              </g>
              <g id="E-15" class="cls-6">
                <g class="cls-6">
                  <path d="M434.07 110.44l4.18-3.33a.34.34 0 01.54.06l2.88 3.62a.34.34 0 01-.07.54l-.53.43a.34.34 0 01-.54-.07l-2-2.52-.72.57 1.72 2.16a.34.34 0 01-.06.54l-.5.39a.34.34 0 01-.54-.06l-1.71-2.16-.7.56 2 2.52a.34.34 0 01-.06.54l-.54.43a.34.34 0 01-.54-.07L434 111a.34.34 0 01.07-.56z" class="cls-7" transform="translate(-2.63 -2.8)"/>
                </g>
              </g>
              <g id="R-29" class="cls-6">
                <g class="cls-6">
                  <path d="M441.55 121.58l4.81-3.38a.38.38 0 01.59.1l2.18 3.1a2.54 2.54 0 01.46 1.15 2 2 0 01-.15 1.14 2.15 2.15 0 01-.74.91 2.12 2.12 0 01-1.29.4 2.34 2.34 0 01-1.3-.48l-.73 2.34a.47.47 0 01-.17.25.21.21 0 01-.19 0 .4.4 0 01-.19-.16l-.74-1a.82.82 0 01-.13-.27.81.81 0 010-.3l.83-2.43-.58-.83-1.55 1.09a.38.38 0 01-.6-.11l-.65-.91a.38.38 0 01.14-.61zm5.45 1.56a.68.68 0 00.55-.12.69.69 0 00.33-.47.71.71 0 00-.15-.57l-1.12-1.6-1.2.85 1.09 1.55a.82.82 0 00.5.36z" class="cls-7" transform="translate(-2.63 -2.8)"/>
                </g>
              </g>
              <g id="R-30" class="cls-6">
                <g class="cls-6">
                  <path d="M449.37 133.05l5-3.08a.38.38 0 01.59.14l2 3.22a2.52 2.52 0 01.4 1.18 2.18 2.18 0 01-.22 1.13 2.06 2.06 0 01-.8.86 2.14 2.14 0 01-1.31.32 2.18 2.18 0 01-1.26-.56l-.88 2.29a.39.39 0 01-.18.24.19.19 0 01-.19 0 .37.37 0 01-.19-.17l-.67-1.09a.71.71 0 01-.11-.28.61.61 0 01.05-.29l1-2.38-.53-.86-1.61 1a.38.38 0 01-.59-.14l-.59-1a.37.37 0 01.09-.53zm5.35 1.89a.71.71 0 00.55-.08.78.78 0 00.36-.45.75.75 0 00-.11-.58l-1-1.66-1.25.77 1 1.61a.8.8 0 00.45.39z" class="cls-7" transform="translate(-2.63 -2.8)"/>
                </g>
              </g>
              <g id="Y-16" class="cls-6">
                <g class="cls-6">
                  <path d="M461 153.66l2-1 2-3.89a.47.47 0 01.19-.22.22.22 0 01.21 0 .48.48 0 01.18.21l.61 1.23a.57.57 0 010 .58l-.59 1.05-.4.72-.24.43v.11c.35.05.68.11 1 .17l.42.07 1.16.22a.67.67 0 01.27.11.58.58 0 01.18.24l.53 1.07a.46.46 0 01.06.26.25.25 0 01-.13.17.47.47 0 01-.28 0l-4.32-.77-2 1a.38.38 0 01-.58-.19l-.5-1a.38.38 0 01.23-.57z" class="cls-7" transform="translate(-2.63 -2.8)"/>
                </g>
              </g>
              <g id="E-16" class="cls-6">
                <g class="cls-6">
                  <path d="M466.8 163.79l4.92-2.08a.34.34 0 01.5.2l1.8 4.26a.34.34 0 01-.21.51l-.63.27a.34.34 0 01-.5-.21l-1.25-3-.85.35 1.07 2.55a.33.33 0 01-.2.49l-.59.25a.34.34 0 01-.5-.2l-1.07-2.54-.82.34 1.25 3a.34.34 0 01-.2.51l-.63.27a.34.34 0 01-.51-.21l-1.79-4.26a.34.34 0 01.21-.5z" class="cls-7" transform="translate(-2.63 -2.8)"/>
                </g>
              </g>
              <g id="R-31" class="cls-6">
                <g class="cls-6">
                  <path d="M471 176.54l5.54-2a.37.37 0 01.54.25l1.26 3.58a2.64 2.64 0 01.14 1.23 2.12 2.12 0 01-.46 1.06 2 2 0 01-1 .67 2.09 2.09 0 01-1.35 0 2.27 2.27 0 01-1.12-.81l-1.34 2.05a.46.46 0 01-.22.2.27.27 0 01-.2 0 .37.37 0 01-.14-.21l-.43-1.21a.83.83 0 010-.3.6.6 0 01.1-.27l1.46-2.12-.34-1-1.79.63a.37.37 0 01-.54-.26l-.38-1.06a.37.37 0 01.27-.43zm4.83 3a.66.66 0 00.55 0 .68.68 0 00.46-.94l-.65-1.85-1.39.49.63 1.79a.85.85 0 00.4.48z" class="cls-7" transform="translate(-2.63 -2.8)"/>
                </g>
              </g>
              <g id="R-32" class="cls-6">
                <g class="cls-6">
                  <path d="M475.42 189.69l5.65-1.61a.38.38 0 01.53.29l1 3.64a2.63 2.63 0 01.06 1.24 2.18 2.18 0 01-2.87 1.6 2.32 2.32 0 01-1.07-.88l-1.46 2a.5.5 0 01-.23.19.23.23 0 01-.2 0 .36.36 0 01-.13-.21l-.35-1.23a.84.84 0 010-.3.54.54 0 01.12-.27l1.59-2-.28-1-1.83.52a.38.38 0 01-.53-.3l-.3-1.08a.37.37 0 01.3-.6zm4.64 3.27a.71.71 0 00.55.07.78.78 0 00.47-.34.72.72 0 00.05-.58l-.54-1.89-1.41.41.52 1.82a.86.86 0 00.36.55z" class="cls-7" transform="translate(-2.63 -2.8)"/>
                </g>
              </g>
              <g id="Y-17" class="cls-6">
                <g class="cls-6">
                  <path d="M481.07 212.68l2.21-.41 3-3.2a.38.38 0 01.24-.16.18.18 0 01.19.06.42.42 0 01.12.25l.25 1.34a.59.59 0 01-.16.56l-.85.85-.59.58-.35.36v.11l.9.43.39.19 1.05.52a.62.62 0 01.23.18.67.67 0 01.11.27l.22 1.18a.4.4 0 010 .27.19.19 0 01-.16.12.41.41 0 01-.27-.05l-4-1.91-2.21.41a.38.38 0 01-.5-.34l-.21-1.11a.38.38 0 01.39-.5z" class="cls-7" transform="translate(-2.63 -2.8)"/>
                </g>
              </g>
              <g id="E-17" class="cls-6">
                <g class="cls-6">
                  <path d="M483.87 224l5.29-.67a.35.35 0 01.44.33l.57 4.59a.35.35 0 01-.34.44l-.68.08a.34.34 0 01-.42-.34l-.4-3.2-.91.12.34 2.74a.33.33 0 01-.33.42l-.64.08a.33.33 0 01-.42-.33l-.34-2.74-.89.11.4 3.2a.33.33 0 01-.32.43l-.69.09a.34.34 0 01-.43-.34l-.57-4.59a.34.34 0 01.34-.42z" class="cls-7" transform="translate(-2.63 -2.8)"/>
                </g>
              </g>
              <g id="R-33" class="cls-6">
                <g class="cls-6">
                  <path d="M484.45 237.4l5.86-.38a.38.38 0 01.46.39l.25 3.78a2.6 2.6 0 01-.2 1.22 2.23 2.23 0 01-.73.9 2.19 2.19 0 01-2.42.06 2.25 2.25 0 01-.85-1.08L485 243.9a.48.48 0 01-.27.13.22.22 0 01-.18-.08.37.37 0 01-.08-.23l-.08-1.28a.69.69 0 010-.3.56.56 0 01.17-.24l2-1.64-.06-1-1.9.13a.38.38 0 01-.45-.4l-.08-1.12a.38.38 0 01.38-.47zm3.85 4.17a.64.64 0 00.53.18.74.74 0 00.52-.22.71.71 0 00.17-.57l-.13-2-1.46.1.12 1.89a.84.84 0 00.25.62z" class="cls-7" transform="translate(-2.63 -2.8)"/>
                </g>
              </g>
              <g id="R-34" class="cls-6">
                <g class="cls-6">
                  <path d="M485.12 251.28l5.88-.09c.28 0 .43.13.43.41l.06 3.79a2.53 2.53 0 01-.26 1.21 2.07 2.07 0 01-.77.86 2 2 0 01-1.13.33 2.09 2.09 0 01-1.29-.39 2.21 2.21 0 01-.8-1.12l-1.92 1.51a.45.45 0 01-.28.12.25.25 0 01-.18-.08.52.52 0 01-.07-.24v-1.28a.67.67 0 01.06-.3.54.54 0 01.18-.23l2.06-1.54v-1h-1.9a.38.38 0 01-.43-.42v-1.12a.38.38 0 01.36-.42zm3.64 4.36a.69.69 0 00.51.21.69.69 0 00.74-.76v-2h-1.47v1.89a.78.78 0 00.22.66z" class="cls-7" transform="translate(-2.63 -2.8)"/>
                </g>
              </g>
              <g id="Y-18" class="cls-6">
                <g class="cls-6">
                  <path d="M484.43 274.94l2.25.19 3.74-2.28a.4.4 0 01.27-.09.22.22 0 01.17.11.41.41 0 01.05.28l-.12 1.36a.58.58 0 01-.31.49l-1 .59-.72.41-.43.25v.11q.41.33.75.66l.32.28.88.78a.71.71 0 01.17.24.66.66 0 010 .29l-.11 1.19a.44.44 0 01-.09.26.19.19 0 01-.19.07.43.43 0 01-.25-.12l-3.29-2.9-2.25-.19a.38.38 0 01-.39-.46l.1-1.13a.37.37 0 01.45-.39z" class="cls-7" transform="translate(-2.63 -2.8)"/>
                </g>
              </g>
              <g id="E-18" class="cls-6">
                <g class="cls-6">
                  <path d="M484.1 286.59l5.29.77a.34.34 0 01.32.44l-.67 4.57a.34.34 0 01-.44.33l-.68-.1a.34.34 0 01-.32-.44l.47-3.19-.91-.14-.4 2.74a.34.34 0 01-.43.32l-.63-.1a.33.33 0 01-.32-.43l.4-2.73-.88-.13-.47 3.19c0 .26-.18.37-.43.33l-.68-.1a.34.34 0 01-.33-.44l.67-4.57a.34.34 0 01.44-.32z" class="cls-7" transform="translate(-2.63 -2.8)"/>
                </g>
              </g>
              <g id="R-35" class="cls-6">
                <g class="cls-6">
                  <path d="M481.09 299.67l5.75 1.19a.37.37 0 01.33.5l-.77 3.71a2.52 2.52 0 01-.52 1.12 2.23 2.23 0 01-.93.68 2.13 2.13 0 01-1.18.07 2.07 2.07 0 01-1.17-.67 2.29 2.29 0 01-.54-1.27l-2.2 1.06a.58.58 0 01-.3.06.22.22 0 01-.15-.13.37.37 0 010-.24l.26-1.26a.72.72 0 01.12-.28.62.62 0 01.21-.21l2.34-1.06.21-1-1.86-.39a.38.38 0 01-.33-.51l.23-1.09a.37.37 0 01.5-.28zm2.59 5a.69.69 0 00.46.32.78.78 0 00.57-.08.74.74 0 00.31-.5l.4-1.92-1.44-.3-.38 1.86a.85.85 0 00.08.66z" class="cls-7" transform="translate(-2.63 -2.8)"/>
                </g>
              </g>
              <g id="R-36" class="cls-6">
                <g class="cls-6">
                  <path d="M478.06 313.21l5.66 1.54a.38.38 0 01.31.52l-1 3.66a2.53 2.53 0 01-.59 1.08 2.1 2.1 0 01-1 .62 2.15 2.15 0 01-1.18 0 2.09 2.09 0 01-1.13-.73 2.33 2.33 0 01-.46-1.31l-2.27.93a.51.51 0 01-.29 0 .22.22 0 01-.15-.13.36.36 0 010-.25l.34-1.24a.68.68 0 01.13-.27.6.6 0 01.24-.16l2.4-.91.27-1-1.83-.5a.38.38 0 01-.3-.52l.3-1.08a.37.37 0 01.55-.25zm2.28 5.19a.69.69 0 00.43.35.81.81 0 00.58-.05.74.74 0 00.34-.48l.51-1.89-1.41-.38-.5 1.83a.77.77 0 00.05.62z" class="cls-7" transform="translate(-2.63 -2.8)"/>
                </g>
              </g>
              <g id="Y-19" class="cls-6">
                <g class="cls-6">
                  <path d="M471 335.81l2.11.8 4.22-1.19a.48.48 0 01.29 0 .21.21 0 01.13.16.37.37 0 010 .27l-.49 1.28a.62.62 0 01-.43.4l-1.16.28-.81.19-.48.13v.1c.2.29.38.57.55.84l.23.36.63 1a.6.6 0 01.06.56l-.42 1.12a.54.54 0 01-.16.23.22.22 0 01-.21 0 .45.45 0 01-.2-.18l-2.39-3.68-2.11-.8a.38.38 0 01-.25-.55l.4-1.06a.38.38 0 01.49-.26z" class="cls-7" transform="translate(-2.63 -2.8)"/>
                </g>
              </g>
              <g id="E-19" class="cls-6">
                <g class="cls-6">
                  <path d="M467.51 346.93l4.87 2.18a.35.35 0 01.2.51l-1.89 4.22a.35.35 0 01-.51.2l-.63-.28a.35.35 0 01-.19-.51l1.32-2.95-.84-.37-1.13 2.52a.34.34 0 01-.5.19l-.58-.26a.33.33 0 01-.19-.5l1.12-2.52-.81-.37-1.31 2.95a.35.35 0 01-.51.2l-.63-.28a.35.35 0 01-.19-.52l1.88-4.22a.35.35 0 01.52-.19z" class="cls-7" transform="translate(-2.63 -2.8)"/>
                </g>
              </g>
              <g id="R-37" class="cls-6">
                <g class="cls-6">
                  <path d="M461.06 358.71l5.2 2.71a.37.37 0 01.19.57l-1.75 3.36a2.57 2.57 0 01-.81.94 2.17 2.17 0 01-3.18-.81 2.33 2.33 0 01-.17-1.37l-2.41.42a.48.48 0 01-.3 0 .25.25 0 01-.12-.16.39.39 0 01.06-.24l.59-1.14a.65.65 0 01.19-.24.67.67 0 01.27-.11l2.54-.38.47-.9-1.68-.88a.37.37 0 01-.19-.57l.52-1a.38.38 0 01.58-.2zm1.12 5.55a.7.7 0 00.35.44.78.78 0 00.57.08.77.77 0 00.44-.4l.9-1.74-1.3-.67-.88 1.68a.79.79 0 00-.08.61z" class="cls-7" transform="translate(-2.63 -2.8)"/>
                </g>
              </g>
              <g id="R-38" class="cls-6">
                <g class="cls-6">
                  <path d="M454.47 370.92l5 3a.38.38 0 01.15.58l-2 3.25a2.62 2.62 0 01-.86.89 2.1 2.1 0 01-1.11.32 2 2 0 01-1.13-.31 2.1 2.1 0 01-.89-1 2.26 2.26 0 01-.09-1.37l-2.43.27a.44.44 0 01-.29-.05.17.17 0 01-.11-.16.39.39 0 01.06-.24l.66-1.1a.77.77 0 01.2-.23.62.62 0 01.28-.09l2.56-.23.53-.87-1.63-1a.38.38 0 01-.15-.59l.58-1a.37.37 0 01.67-.07zm.79 5.61a.64.64 0 00.33.45.69.69 0 00.56.11.73.73 0 00.46-.36l1-1.68-1.26-.76-1 1.63a.81.81 0 00-.09.61z" class="cls-7" transform="translate(-2.63 -2.8)"/>
                </g>
              </g>
              <g id="Y-20" class="cls-6">
                <g class="cls-6">
                  <path d="M441.54 390.75l1.82 1.34h4.38a.47.47 0 01.28.07.2.2 0 01.09.18.5.5 0 01-.1.26l-.81 1.11a.62.62 0 01-.52.26h-2.53l-.06.08q.17.51.3 1l.12.41.34 1.12a.77.77 0 010 .29.54.54 0 01-.12.27l-.71 1a.48.48 0 01-.21.18.23.23 0 01-.21 0 .53.53 0 01-.14-.23l-1.31-4.19-1.82-1.34a.38.38 0 01-.09-.6l.67-.91a.38.38 0 01.63-.3z" class="cls-7" transform="translate(-2.63 -2.8)"/>
                </g>
              </g>
              <g id="E-20" class="cls-6">
                <g class="cls-6">
                  <path d="M435.18 400.54l4.11 3.41a.34.34 0 01.06.54l-3 3.56a.34.34 0 01-.55.05l-.53-.44a.34.34 0 010-.54l2.06-2.48-.7-.59-1.77 2.13a.33.33 0 01-.53.05l-.5-.41a.34.34 0 010-.54l1.76-2.12-.68-.57-2.06 2.48a.35.35 0 01-.55.06l-.52-.44a.34.34 0 01-.05-.55l2.95-3.56a.34.34 0 01.5-.04z" class="cls-7" transform="translate(-2.63 -2.8)"/>
                </g>
              </g>
              <g id="R-39" class="cls-6">
                <g class="cls-6">
                  <path d="M425.8 410.14l4.29 4a.37.37 0 010 .59l-2.59 2.77a2.75 2.75 0 01-1 .69 2.26 2.26 0 01-1.15.09 2.11 2.11 0 01-1-.55 2.07 2.07 0 01-.66-1.18 2.18 2.18 0 01.21-1.36l-2.44-.25a.47.47 0 01-.28-.1.24.24 0 01-.07-.19.4.4 0 01.12-.22l.87-.94a.83.83 0 01.25-.18.67.67 0 01.29 0l2.55.32.69-.75-1.38-1.29a.38.38 0 010-.61l.77-.82a.37.37 0 01.53-.02zm-.41 5.66a.68.68 0 00.23.51.77.77 0 00.53.23.7.7 0 00.52-.27l1.34-1.43-1.07-1-1.3 1.39a.78.78 0 00-.25.57z" class="cls-7" transform="translate(-2.63 -2.8)"/>
                </g>
              </g>
              <g id="R-40" class="cls-6">
                <g class="cls-6">
                  <path d="M416.17 420.13l4 4.27a.37.37 0 010 .6l-2.75 2.6a2.51 2.51 0 01-1.07.63 2.14 2.14 0 01-1.15 0 2.24 2.24 0 01-1.59-1.83 2.22 2.22 0 01.29-1.35l-2.42-.39a.48.48 0 01-.27-.12.23.23 0 01-.06-.19.35.35 0 01.13-.21l.93-.89a.7.7 0 01.25-.16.69.69 0 01.29 0l2.53.48.74-.71-1.3-1.37a.39.39 0 010-.61l.82-.77a.37.37 0 01.63.02zm-.75 5.62a.69.69 0 00.2.53.75.75 0 00.51.26.73.73 0 00.54-.23l1.42-1.35-1-1.07-1.37 1.31a.81.81 0 00-.3.55z" class="cls-7" transform="translate(-2.63 -2.8)"/>
                </g>
              </g>
              <g id="Y-21" class="cls-6">
                <g class="cls-6">
                  <path d="M398.4 435.77l1.39 1.77 4.22 1.18a.36.36 0 01.25.14.2.2 0 010 .2.43.43 0 01-.17.22l-1.07.84a.62.62 0 01-.58.12l-1.14-.37c-.24-.07-.51-.15-.79-.25l-.47-.14-.09.07v2.62a.65.65 0 01-.06.29.55.55 0 01-.19.22l-.94.74a.42.42 0 01-.24.11.23.23 0 01-.19-.09.43.43 0 01-.08-.27l-.13-4.38-1.28-1.79a.37.37 0 01.07-.6l.89-.7a.38.38 0 01.6.07z" class="cls-7" transform="translate(-2.63 -2.8)"/>
                </g>
              </g>
              <g id="E-21" class="cls-6">
                <g class="cls-6">
                  <path d="M389.67 443.49l3 4.39a.35.35 0 01-.1.54l-3.8 2.63a.34.34 0 01-.54-.1l-.39-.56a.34.34 0 01.1-.54l2.65-1.83-.52-.76-2.27 1.58a.34.34 0 01-.53-.1l-.36-.53a.33.33 0 01.09-.52l2.28-1.58-.51-.73-2.65 1.84a.34.34 0 01-.54-.09l-.39-.57a.34.34 0 01.1-.54l3.8-2.63a.34.34 0 01.58.1z" class="cls-7" transform="translate(-2.63 -2.8)"/>
                </g>
              </g>
              <g id="R-41" class="cls-6">
                <g class="cls-6">
                  <path d="M378 450.23l3 5a.37.37 0 01-.13.58l-3.24 2a2.62 2.62 0 01-1.18.39 2.19 2.19 0 01-1.13-.23 2 2 0 01-.85-.8 2.1 2.1 0 01-.32-1.32 2.33 2.33 0 01.57-1.26l-2.29-.89a.42.42 0 01-.23-.17.21.21 0 010-.2.33.33 0 01.17-.18l1.1-.67a.82.82 0 01.28-.11.8.8 0 01.29.05l2.37 1 .87-.53-1-1.62a.37.37 0 01.14-.58l1-.59a.38.38 0 01.58.13zm-1.91 5.34a.63.63 0 00.08.55.69.69 0 001 .25l1.67-1-.76-1.25-1.62 1a.8.8 0 00-.33.45z" class="cls-7" transform="translate(-2.63 -2.8)"/>
                </g>
              </g>
              <g id="R-42" class="cls-6">
                <g class="cls-6">
                  <path d="M366.1 457.26l2.74 5.2a.37.37 0 01-.17.57l-3.35 1.77a2.63 2.63 0 01-1.2.32 2.19 2.19 0 01-1.12-.3 2.12 2.12 0 01-.8-.85 2 2 0 01-.23-1.33 2.22 2.22 0 01.63-1.22l-2.22-1a.45.45 0 01-.23-.19.23.23 0 010-.2.37.37 0 01.18-.17l1.14-.6a.69.69 0 01.29-.09.74.74 0 01.28.06l2.31 1.14.9-.48-.88-1.68a.38.38 0 01.17-.58l1-.52a.38.38 0 01.56.15zm-2.24 5.21a.68.68 0 00.05.56.68.68 0 001 .31l1.73-.91-.68-1.3-1.68.89a.83.83 0 00-.42.45z" class="cls-7" transform="translate(-2.63 -2.8)"/>
                </g>
              </g>
              <g id="Y-22" class="cls-6">
                <g class="cls-6">
                  <path d="M344.76 467.54l.86 2.09 3.75 2.26a.42.42 0 01.21.21.21.21 0 010 .2.42.42 0 01-.23.17l-1.26.52a.6.6 0 01-.58 0l-1-.66-.69-.45-.42-.27h-.11c-.08.34-.16.67-.24 1l-.1.42-.29 1.13a.68.68 0 01-.13.27.72.72 0 01-.24.16l-1.11.46a.45.45 0 01-.27 0 .21.21 0 01-.15-.14.46.46 0 010-.27l1.06-4.27-.86-2.08a.38.38 0 01.23-.56l1-.43a.38.38 0 01.57.24z" class="cls-7" transform="translate(-2.63 -2.8)"/>
                </g>
              </g>
              <g id="E-22" class="cls-6">
                <g class="cls-6">
                  <path d="M334.26 472.62l1.74 5.05a.34.34 0 01-.23.49l-4.37 1.51a.35.35 0 01-.5-.24l-.22-.65a.35.35 0 01.24-.49l3.05-1.05-.3-.87-2.61.9a.33.33 0 01-.48-.23l-.21-.61a.34.34 0 01.24-.48l2.61-.9-.29-.84-3.05 1.05a.33.33 0 01-.49-.23l-.23-.65a.35.35 0 01.24-.5l4.37-1.5a.33.33 0 01.49.24z" class="cls-7" transform="translate(-2.63 -2.8)"/>
                </g>
              </g>
              <g id="R-43" class="cls-6">
                <g class="cls-6">
                  <path d="M321.27 476l1.59 5.66a.38.38 0 01-.29.52l-3.65 1a2.5 2.5 0 01-1.24 0 2.07 2.07 0 01-1-.52 2 2 0 01-.6-1 2.07 2.07 0 01.05-1.35 2.25 2.25 0 01.88-1.06l-2-1.48a.54.54 0 01-.18-.23.23.23 0 010-.2.36.36 0 01.21-.13l1.24-.34a.58.58 0 01.57.09l2 1.6 1-.28-.51-1.82a.38.38 0 01.3-.53l1.08-.3a.36.36 0 01.55.37zm-3.27 4.58a.67.67 0 00-.08.55.81.81 0 00.34.47.71.71 0 00.58 0l1.89-.53-.4-1.41-1.82.51a.76.76 0 00-.51.41z" class="cls-7" transform="translate(-2.63 -2.8)"/>
                </g>
              </g>
              <g id="R-44" class="cls-6">
                <g class="cls-6">
                  <path d="M307.85 479.5l1.23 5.74a.37.37 0 01-.32.51l-3.71.8a2.68 2.68 0 01-1.23 0 2.21 2.21 0 01-1-.59 2.12 2.12 0 01-.54-1 2.1 2.1 0 01.13-1.34 2.3 2.3 0 01.95-1l-1.87-1.62a.41.41 0 01-.16-.25.22.22 0 010-.19.42.42 0 01.22-.11l1.26-.27a.62.62 0 01.3 0 .51.51 0 01.26.14l1.91 1.71 1-.21-.4-1.86a.38.38 0 01.33-.51l1.1-.23a.37.37 0 01.54.28zm-3.57 4.41a.67.67 0 00-.1.55.75.75 0 00.3.49.71.71 0 00.58.08l1.92-.41-.31-1.43-1.86.39a.9.9 0 00-.53.33z" class="cls-7" transform="translate(-2.63 -2.8)"/>
                </g>
              </g>
              <g id="Y-23" class="cls-6">
                <g class="cls-6">
                  <path d="M284.53 483.61l.26 2.23 3 3.2a.49.49 0 01.14.25.25.25 0 01-.07.2.47.47 0 01-.26.1l-1.36.16a.59.59 0 01-.55-.2l-.78-.91c-.18-.19-.36-.4-.55-.62l-.33-.37h-.11c-.17.31-.33.6-.49.87l-.22.38-.58 1a.72.72 0 01-.2.22.58.58 0 01-.28.09l-1.19.14a.56.56 0 01-.27 0 .25.25 0 01-.11-.18.54.54 0 01.07-.27l2.17-3.81-.26-2.24a.38.38 0 01.37-.48l1.12-.13a.38.38 0 01.48.37z" class="cls-7" transform="translate(-2.63 -2.8)"/>
                </g>
              </g>
              <g id="E-23" class="cls-6">
                <g class="cls-6">
                  <path d="M273.06 485.65l.31 5.33c0 .26-.1.4-.36.41l-4.61.27a.35.35 0 01-.42-.37v-.68a.34.34 0 01.37-.4l3.22-.19v-.92l-2.76.16a.33.33 0 01-.4-.35v-.64a.33.33 0 01.36-.4l2.75-.16-.05-.89-3.22.19a.35.35 0 01-.41-.36v-.68a.36.36 0 01.37-.42l4.61-.27a.35.35 0 01.24.37z" class="cls-7" transform="translate(-2.63 -2.8)"/>
                </g>
              </g>
              <g id="R-45" class="cls-6">
                <g class="cls-6">
                  <path d="M259.67 485.3l.09 5.87c0 .29-.13.43-.41.44l-3.79.06a2.65 2.65 0 01-1.21-.26 2.21 2.21 0 01-.86-.77 2 2 0 01-.33-1.13 2.06 2.06 0 01.39-1.29 2.21 2.21 0 011.12-.8l-1.51-1.92a.45.45 0 01-.12-.28.25.25 0 01.08-.18.43.43 0 01.24-.07h1.29a.84.84 0 01.29.05.67.67 0 01.23.19l1.54 2.05h1v-1.9a.38.38 0 01.42-.43h1.12a.38.38 0 01.42.37zm-4.36 3.63a.73.73 0 00-.21.52.75.75 0 00.21.54.7.7 0 00.55.19h2v-1.46h-1.89a.87.87 0 00-.66.21z" class="cls-7" transform="translate(-2.63 -2.8)"/>
                </g>
              </g>
              <g id="R-46" class="cls-6">
                <g class="cls-6">
                  <path d="M245.75 485.16l-.35 5.84c0 .29-.16.42-.44.41l-3.79-.23a2.58 2.58 0 01-1.18-.35 2.15 2.15 0 01-.81-.83 2.23 2.23 0 01-.24-1.15 2.07 2.07 0 01.49-1.26 2.26 2.26 0 011.18-.71l-1.37-2a.43.43 0 01-.09-.29.2.2 0 01.09-.17.37.37 0 01.25-.05l1.28.08a.65.65 0 01.29.07.57.57 0 01.21.2l1.38 2.17 1 .06.12-1.9c0-.28.16-.41.45-.4l1.12.07a.37.37 0 01.41.44zm-4.61 3.3a.64.64 0 00-.25.5.74.74 0 00.16.55.72.72 0 00.54.23l1.95.12.09-1.46-1.9-.12a.82.82 0 00-.59.18z" class="cls-7" transform="translate(-2.63 -2.8)"/>
                </g>
              </g>
            </g>
          </g>
        </g>
      </g>
    </g>
  </g>
</svg>