<svg xmlns="http://www.w3.org/2000/svg" viewBox="0 0 323.25 29.77"><defs><style>.cls-1{fill:#fff;}.cls-2{fill:#61EC6E;}</style></defs><g id="Layer_2" data-name="Layer 2"><g id="Layer_1-2" data-name="Layer 1"><path class="cls-1" d="M0,8.6H5v5.76h6.49V8.6h5V24.45h-5V18.52H5v5.93H0Z"/><path class="cls-1" d="M32.44,24.45l-1-2.45h-7l-1,2.45H18.6L25.38,8.56h5.56l6.81,15.89ZM28,13.36l-2.19,5.4h4.4L28,13.36Z"/><path class="cls-1" d="M39.83,8.6H48.3c4.16,0,6.81,2,6.81,5.55a4.9,4.9,0,0,1-1.86,4.11,7.73,7.73,0,0,1-5,1.45H44.83v4.74h-5Zm5,3.67v3.85h2.78c1.81,0,2.57-.69,2.57-2s-.76-1.9-2.57-1.9Z"/><path class="cls-1" d="M57.5,8.6H66c4.16,0,6.81,2,6.81,5.55a4.9,4.9,0,0,1-1.86,4.11,7.73,7.73,0,0,1-5,1.45H62.5v4.74h-5Zm5,3.67v3.85h2.79c1.81,0,2.57-.69,2.57-2s-.76-1.9-2.57-1.9Z"/><path class="cls-1" d="M73.34,8.6h5.78l3.62,6.09L86.38,8.6h5.4L85,18.71v5.74h-5V18.71Z"/><path class="cls-1" d="M98.79,8.6h4.94l7.12,8.9h.05l0-8.9h4.55V24.45h-4.91l-7.16-9.11h0l0,9.11H98.79Z"/><path class="cls-1" d="M119.07,8.6h14.3v3.76H124v2.29H131v3.54H124v2.5h9.42v3.76h-14.3Z"/><path class="cls-1" d="M135.2,8.6h5.42l2.66,10h.05l3.21-10h4.55l3.18,10h0L157,8.6h5l-5.35,15.89h-4.74l-3.3-9.7h0l-3.28,9.7h-4.74Z"/><path class="cls-2" d="M173.81,0h10.86l6.8,11.44L198.31,0h10.14L195.8,19V29.77h-9.38V19Z"/><path class="cls-2" d="M211.93,0h26.86V7.06H221.1v4.29h13.27V18H221.1V22.7h17.69v7.07H211.93Z"/><path class="cls-2" d="M254.21,20.29v9.48h-9.43V0h17.56C270,0,274.5,3.58,274.5,10.15a9.41,9.41,0,0,1-6.44,9.2l7.65,10.42H265.29l-6.66-9.48Zm-.09-13.41v6.84h6.3c3.09,0,4.52-1.07,4.52-3.4s-1.43-3.44-4.52-3.44Z"/><path class="cls-2" d="M289.43,20.29v9.48H280V0h17.56c7.64,0,12.16,3.58,12.16,10.15a9.41,9.41,0,0,1-6.44,9.2l7.64,10.42H300.51l-6.66-9.48Zm-.09-13.41v6.84h6.3c3.08,0,4.51-1.07,4.51-3.4s-1.43-3.44-4.51-3.44Z"/><path class="cls-2" d="M314.45,0h8.8V7.87L320,19.49h-2.24L314.45,7.87Zm.4,22.79h8v7h-8Z"/></g></g></svg>