<svg xmlns="http://www.w3.org/2000/svg" data-name="Layer 1" viewBox="0 0 512.45 512.32">
  <path fill="#fff" fill-rule="evenodd" d="M302.23 0a23.24 23.24 0 00-13.42 4.64l-180 135.12H23.38A23.29 23.29 0 000 163v186.31a23.29 23.29 0 0023.2 23.38h85.64l180 134.94a23.3 23.3 0 0037.3-18.55V23.39A23.3 23.3 0 00302.9 0zm93.67 139.77a23.3 23.3 0 00-1 46.58h1a69.88 69.88 0 110 139.76 23.3 23.3 0 00-1 46.58h1c64 0 116.57-52.5 116.58-116.53S459.9 139.77 395.9 139.77zm.1 93.15a23.29 23.29 0 1023.28 23.29 23.29 23.29 0 00-23.31-23.29z"/>
</svg>